<svg width="189" height="102" viewBox="0 0 189 102" fill="none" xmlns="http://www.w3.org/2000/svg">
<path d="M39.8489 75.2786C32.5297 75.2786 26.837 81.0692 26.837 88.5143C26.837 95.9595 32.5297 101.75 39.8489 101.75C47.1681 101.75 52.8609 95.9595 52.8609 88.5143C52.8609 81.0692 47.1681 75.2786 39.8489 75.2786ZM117.107 0H110.601V16.1311H134.999L117.107 0ZM0.81317 90.9961H17.0781C17.0781 90.9961 17.8913 66.179 41.4754 66.179C58.9602 66.179 61.8065 90.9961 61.8065 90.9961H102.469V0H0L0.81317 90.9961ZM154.516 75.2786C147.197 75.2786 141.505 81.0692 141.505 88.5143C141.505 95.9595 147.197 101.75 154.516 101.75C161.836 101.75 167.528 95.9595 167.528 88.5143C167.528 81.0692 161.429 75.2786 154.516 75.2786ZM139.065 20.6809H110.601V90.9961H134.999C134.999 90.9961 131.746 70.3151 155.33 70.3151C173.221 70.3151 172.814 90.9961 172.814 90.9961H187.86L188.673 59.9747L139.065 20.6809ZM134.999 74.4513H118.734V66.179H134.999V74.4513ZM133.372 59.561L117.107 49.6342V26.4716H133.372L175.661 59.561H133.372Z" fill="white" fill-opacity="0.4"/>
</svg>
